HIERARCHY
ROOT mixamorig:Hips
{
	OFFSET 0.00 0.00 0.00
	CHANNELS 6 Xposition Yposition Zposition Zrotation Yrotation Xrotation
	JOINT mixamorig:Spine
	{
		OFFSET	0.0000	9.9235	-1.2273
		CHANNELS 3 Zrotation Yrotation Xrotation
		JOINT mixamorig:Spine1
		{
			OFFSET	-0.0001	11.6454	-1.4223
			CHANNELS 3 Zrotation Yrotation Xrotation
			JOINT mixamorig:Spine2
			{
				OFFSET	0.0001	13.3602	-1.6265
				CHANNELS 3 Zrotation Yrotation Xrotation
				JOINT mixamorig:Neck
				{
					OFFSET	0.0000	15.0325	0.7929
					CHANNELS 3 Zrotation Yrotation Xrotation
					JOINT mixamorig:Head
					{
						OFFSET	0.0000	10.3218	3.1424
						CHANNELS 3 Zrotation Yrotation Xrotation
						JOINT mixamorig:HeadTop_End
						{
							OFFSET	0.0002	18.4747	6.6364
							CHANNELS 3 Zrotation Yrotation Xrotation
							End Site
							{
								OFFSET 0.0000 0.0000 0.0000
							}
						}
						JOINT mixamorig:LeftEye
						{
							OFFSET	2.9479	7.6817	9.1207
							CHANNELS 3 Zrotation Yrotation Xrotation
							End Site
							{
								OFFSET 0.0000 0.0000 0.0000
							}
						}
						JOINT mixamorig:RightEye
						{
							OFFSET	-2.9445	7.6817	9.1205
							CHANNELS 3 Zrotation Yrotation Xrotation
							End Site
							{
								OFFSET 0.0000 0.0000 0.0000
							}
						}
					}
				}
				JOINT mixamorig:LeftShoulder
				{
					OFFSET	6.1058	9.1104	0.7056
					CHANNELS 3 Zrotation Yrotation Xrotation
					JOINT mixamorig:LeftArm
					{
						OFFSET	12.6532	-0.3431	-2.6009
						CHANNELS 3 Zrotation Yrotation Xrotation
						JOINT mixamorig:LeftForeArm
						{
							OFFSET	27.3517	-0.9645	-1.4034
							CHANNELS 3 Zrotation Yrotation Xrotation
							JOINT mixamorig:LeftHand
							{
								OFFSET	27.5619	-0.7072	1.5501
								CHANNELS 3 Zrotation Yrotation Xrotation
								JOINT mixamorig:LeftHandMiddle1
								{
									OFFSET	12.6631	-1.3962	0.9548
									CHANNELS 3 Zrotation Yrotation Xrotation
									JOINT mixamorig:LeftHandMiddle2
									{
										OFFSET	3.6093	-0.1669	0.0778
										CHANNELS 3 Zrotation Yrotation Xrotation
										JOINT mixamorig:LeftHandMiddle3
										{
											OFFSET	3.4005	-0.6274	0.1147
											CHANNELS 3 Zrotation Yrotation Xrotation
											End Site
											{
												OFFSET 3.6205 -0.6493 0.1199
											}
										}
									}
								}
								JOINT mixamorig:LeftHandThumb1
								{
									OFFSET	3.3268	-2.0475	3.5790
									CHANNELS 3 Zrotation Yrotation Xrotation
									JOINT mixamorig:LeftHandThumb2
									{
										OFFSET	3.4890	-1.4806	2.8548
										CHANNELS 3 Zrotation Yrotation Xrotation
										JOINT mixamorig:LeftHandThumb3
										{
											OFFSET	3.4086	-1.7658	2.1133
											CHANNELS 3 Zrotation Yrotation Xrotation
											End Site
											{
												OFFSET 2.7231 -1.1597 1.7902
											}
										}
									}
								}
								JOINT mixamorig:LeftHandIndex1
								{
									OFFSET	11.9722	-1.1061	3.7324
									CHANNELS 3 Zrotation Yrotation Xrotation
									JOINT mixamorig:LeftHandIndex2
									{
										OFFSET	3.8388	-0.6406	-0.0310
										CHANNELS 3 Zrotation Yrotation Xrotation
										JOINT mixamorig:LeftHandIndex3
										{
											OFFSET	3.3346	-0.7374	-0.0133
											CHANNELS 3 Zrotation Yrotation Xrotation
											End Site
											{
												OFFSET 2.9714 -0.8030 0.0009
											}
										}
									}
								}
								JOINT mixamorig:LeftHandRing1
								{
									OFFSET	12.1659	-1.6805	-1.2769
									CHANNELS 3 Zrotation Yrotation Xrotation
									JOINT mixamorig:LeftHandRing2
									{
										OFFSET	3.5926	-0.2366	-0.0771
										CHANNELS 3 Zrotation Yrotation Xrotation
										JOINT mixamorig:LeftHandRing3
										{
											OFFSET	3.2906	-0.3266	-0.0615
											CHANNELS 3 Zrotation Yrotation Xrotation
											End Site
											{
												OFFSET 3.5423 -0.9211 -0.0200
											}
										}
									}
								}
								JOINT mixamorig:LeftHandPinky1
								{
									OFFSET	11.0508	-2.1872	-3.8040
									CHANNELS 3 Zrotation Yrotation Xrotation
									JOINT mixamorig:LeftHandPinky2
									{
										OFFSET	4.1236	-0.3047	0.1212
										CHANNELS 3 Zrotation Yrotation Xrotation
										JOINT mixamorig:LeftHandPinky3
										{
											OFFSET	2.5805	-0.2597	0.0823
											CHANNELS 3 Zrotation Yrotation Xrotation
											End Site
											{
												OFFSET 2.9027 -0.3379 0.0963
											}
										}
									}
								}
							}
						}
					}
				}
				JOINT mixamorig:RightShoulder
				{
					OFFSET	-6.1057	9.1105	0.7056
					CHANNELS 3 Zrotation Yrotation Xrotation
					JOINT mixamorig:RightArm
					{
						OFFSET	-12.6532	-0.3429	-2.6009
						CHANNELS 3 Zrotation Yrotation Xrotation
						JOINT mixamorig:RightForeArm
						{
							OFFSET	-27.3517	-0.9641	-1.4034
							CHANNELS 3 Zrotation Yrotation Xrotation
							JOINT mixamorig:RightHand
							{
								OFFSET	-27.5619	-0.7068	1.5501
								CHANNELS 3 Zrotation Yrotation Xrotation
								JOINT mixamorig:RightHandMiddle1
								{
									OFFSET	-12.6631	-1.3960	0.9549
									CHANNELS 3 Zrotation Yrotation Xrotation
									JOINT mixamorig:RightHandMiddle2
									{
										OFFSET	-3.6093	-0.1669	0.0778
										CHANNELS 3 Zrotation Yrotation Xrotation
										JOINT mixamorig:RightHandMiddle3
										{
											OFFSET	-3.4005	-0.6273	0.1148
											CHANNELS 3 Zrotation Yrotation Xrotation
											End Site
											{
												OFFSET -3.6205 -0.6492 0.1199
											}
										}
									}
								}
								JOINT mixamorig:RightHandThumb1
								{
									OFFSET	-3.3269	-2.0474	3.5791
									CHANNELS 3 Zrotation Yrotation Xrotation
									JOINT mixamorig:RightHandThumb2
									{
										OFFSET	-3.4890	-1.4805	2.8548
										CHANNELS 3 Zrotation Yrotation Xrotation
										JOINT mixamorig:RightHandThumb3
										{
											OFFSET	-3.4086	-1.7658	2.1133
											CHANNELS 3 Zrotation Yrotation Xrotation
											End Site
											{
												OFFSET -2.7231 -1.1596 1.7902
											}
										}
									}
								}
								JOINT mixamorig:RightHandIndex1
								{
									OFFSET	-11.9722	-1.1059	3.7325
									CHANNELS 3 Zrotation Yrotation Xrotation
									JOINT mixamorig:RightHandIndex2
									{
										OFFSET	-3.8388	-0.6406	-0.0310
										CHANNELS 3 Zrotation Yrotation Xrotation
										JOINT mixamorig:RightHandIndex3
										{
											OFFSET	-3.3346	-0.7373	-0.0133
											CHANNELS 3 Zrotation Yrotation Xrotation
											End Site
											{
												OFFSET -2.9714 -0.8029 0.0009
											}
										}
									}
								}
								JOINT mixamorig:RightHandRing1
								{
									OFFSET	-12.1659	-1.6803	-1.2769
									CHANNELS 3 Zrotation Yrotation Xrotation
									JOINT mixamorig:RightHandRing2
									{
										OFFSET	-3.5926	-0.2366	-0.0771
										CHANNELS 3 Zrotation Yrotation Xrotation
										JOINT mixamorig:RightHandRing3
										{
											OFFSET	-3.2906	-0.3265	-0.0615
											CHANNELS 3 Zrotation Yrotation Xrotation
											End Site
											{
												OFFSET -3.5423 -0.9210 -0.0200
											}
										}
									}
								}
								JOINT mixamorig:RightHandPinky1
								{
									OFFSET	-11.0508	-2.1870	-3.8040
									CHANNELS 3 Zrotation Yrotation Xrotation
									JOINT mixamorig:RightHandPinky2
									{
										OFFSET	-4.1236	-0.3046	0.1212
										CHANNELS 3 Zrotation Yrotation Xrotation
										JOINT mixamorig:RightHandPinky3
										{
											OFFSET	-2.5805	-0.2597	0.0823
											CHANNELS 3 Zrotation Yrotation Xrotation
											End Site
											{
												OFFSET -2.9027 -0.3379 0.0963
											}
										}
									}
								}
							}
						}
					}
				}
			}
		}
	}
	JOINT mixamorig:RightUpLeg
	{
		OFFSET	-9.1245	-6.6564	-0.0554
		CHANNELS 3 Zrotation Yrotation Xrotation
		JOINT mixamorig:RightLeg
		{
			OFFSET	-0.0000	-40.5610	-1.7663
			CHANNELS 3 Zrotation Yrotation Xrotation
			JOINT mixamorig:RightFoot
			{
				OFFSET	0.4978	-41.9625	-3.3512
				CHANNELS 3 Zrotation Yrotation Xrotation
				JOINT mixamorig:RightToeBase
				{
					OFFSET	-0.3734	-10.4922	12.6407
					CHANNELS 3 Zrotation Yrotation Xrotation
					End Site
					{
						OFFSET 0.0000 -0.0000 9.9925
					}
				}
			}
		}
	}
	JOINT mixamorig:LeftUpLeg
	{
		OFFSET	9.1245	-6.6564	-0.0554
		CHANNELS 3 Zrotation Yrotation Xrotation
		JOINT mixamorig:LeftLeg
		{
			OFFSET	0.0000	-40.5610	-1.7663
			CHANNELS 3 Zrotation Yrotation Xrotation
			JOINT mixamorig:LeftFoot
			{
				OFFSET	-0.4978	-41.9625	-3.3512
				CHANNELS 3 Zrotation Yrotation Xrotation
				JOINT mixamorig:LeftToeBase
				{
					OFFSET	0.3734	-10.4922	12.6407
					CHANNELS 3 Zrotation Yrotation Xrotation
					End Site
					{
						OFFSET -0.0000 -0.0000 9.9925
					}
				}
			}
		}
	}
}
MOTION
Frames: 4
Frame Time: 0.0333333
5.1355 97.4814 -1.5440 3.1554 1.7808 -3.7219 -1.0472 -6.3911 7.6908 -1.3857 -0.6277 2.5834 -1.5552 -0.5530 2.5918 2.6224 -0.4227 -0.2333 -0.9157 1.0890 -12.8331 0.0000 -0.0000 0.0000 0.0000 -0.0000 0.0000 0.0000 -0.0000 0.0000 -8.7739 -0.7302 0.6951 -59.8797 -8.7946 12.6188 3.2898 -73.8246 -5.0935 -24.4796 5.9476 -117.0575 -72.3346 -13.8023 3.3653 -59.0772 -2.1533 2.5953 9.3338 0.5526 -0.1696 11.8350 -37.6728 8.7584 -4.7253 -0.2531 -17.9028 9.1909 10.7572 -8.1336 -64.0402 -17.3879 0.7469 -68.4924 -3.2570 0.9848 17.6351 0.9457 0.4282 -70.5843 -11.8673 3.0985 -70.9371 -3.8755 0.7587 8.6979 0.6914 0.2867 -64.9588 -8.4171 2.9553 -66.8567 -2.1819 3.3712 11.4696 0.7213 -0.2263 -3.5594 14.3375 7.4747 64.2672 1.1582 16.1316 -169.9264 79.4051 -172.0707 30.4858 -5.3239 -16.0155 75.2157 -2.5063 5.2002 101.2876 3.2038 6.4780 92.7352 3.4544 5.8808 20.0727 30.2083 66.9121 1.4983 -33.0517 -16.8361 -43.3648 -49.6003 38.6483 13.9317 12.6993 -1.4469 47.7815 3.4117 0.5004 100.0439 5.3396 3.7176 77.3159 3.7007 4.9834 80.2202 5.5042 2.1031 28.9778 2.2389 -0.1758 81.9223 -0.4948 5.7335 48.0813 2.9325 2.5190 78.8131 3.3829 5.0209 -4.2644 -5.7264 -31.4103 -4.9066 -3.0060 59.4493 -1.3782 2.1696 6.8497 3.7497 0.2459 -8.5518 -9.1352 8.8634 -8.0559 -1.0826 -4.9550 18.2830 6.4319 1.6138 -6.6891 0.0000 -0.0000 -0.0000 
5.1370 97.5062 -1.9150 2.6948 2.6594 -3.4738 -0.6319 -6.8858 7.5768 -1.2584 -0.8525 2.6526 -1.4492 -0.7585 2.6635 2.5930 -0.4221 -0.2613 -1.1001 1.0566 -13.2565 0.0000 -0.0000 0.0000 0.0000 -0.0000 0.0000 0.0000 -0.0000 0.0000 -8.7739 -0.7302 0.6951 -59.8165 -8.7647 12.5638 3.5665 -74.6436 -5.3810 -24.5026 6.9258 -117.0793 -72.3346 -13.8023 3.3653 -59.0772 -2.1533 2.5953 9.3338 0.5525 -0.1696 11.8350 -37.6728 8.7584 -4.7253 -0.2532 -17.9028 9.1909 10.7573 -8.1336 -64.0402 -17.3879 0.7469 -68.4924 -3.2570 0.9849 17.6350 0.9457 0.4282 -70.5843 -11.8673 3.0985 -70.9371 -3.8755 0.7587 8.6979 0.6914 0.2867 -64.9588 -8.4171 2.9553 -66.8567 -2.1819 3.3712 11.4696 0.7213 -0.2263 -3.9847 14.0151 7.4371 64.5462 1.3890 16.1731 -169.8177 79.5469 -171.9602 30.7005 -4.7682 -16.2898 75.2158 -2.5062 5.2002 101.2876 3.2038 6.4780 92.7352 3.4544 5.8808 20.0727 30.2083 66.9121 1.4983 -33.0517 -16.8361 -43.3648 -49.6003 38.6484 13.9317 12.6993 -1.4469 47.7815 3.4117 0.5004 100.0439 5.3396 3.7176 77.3158 3.7007 4.9834 80.2202 5.5042 2.1031 28.9778 2.2389 -0.1758 81.9223 -0.4948 5.7336 48.0813 2.9326 2.5190 78.8131 3.3829 5.0209 -3.0359 -5.8952 -33.3244 -4.3075 -3.9651 51.1214 -0.9099 2.0684 5.8067 0.4507 0.0269 -3.6794 -8.2157 8.8185 -5.6255 -1.3367 -5.7691 17.8886 6.2547 1.7190 -8.7765 -0.0000 -0.0000 -0.0000 
5.0745 97.2446 -2.2414 2.4692 3.2109 -3.1891 -0.4171 -6.7370 7.3788 -1.1875 -1.0865 2.7145 -1.3595 -0.9772 2.7280 2.5446 -0.4999 -0.2375 -1.2670 0.9769 -13.5518 0.0000 -0.0000 0.0000 0.0000 -0.0000 0.0000 0.0000 -0.0000 0.0000 -8.7739 -0.7302 0.6951 -59.7694 -9.1154 12.4441 3.7362 -75.1053 -5.5567 -24.9279 7.9557 -116.9859 -72.3346 -13.8023 3.3653 -59.0772 -2.1533 2.5953 9.3338 0.5526 -0.1696 11.8350 -37.6728 8.7584 -4.7253 -0.2531 -17.9028 9.1908 10.7573 -8.1336 -64.0402 -17.3879 0.7469 -68.4924 -3.2571 0.9849 17.6350 0.9458 0.4282 -70.5843 -11.8673 3.0985 -70.9371 -3.8755 0.7587 8.6979 0.6914 0.2867 -64.9588 -8.4171 2.9553 -66.8567 -2.1819 3.3712 11.4696 0.7213 -0.2263 -4.3482 13.6464 7.4198 65.1503 1.4944 16.0327 -169.6871 79.7123 -171.8274 30.8937 -4.3795 -16.4549 75.2158 -2.5063 5.2002 101.2876 3.2038 6.4780 92.7352 3.4544 5.8808 20.0727 30.2083 66.9121 1.4983 -33.0517 -16.8361 -43.3648 -49.6004 38.6483 13.9317 12.6993 -1.4469 47.7815 3.4117 0.5004 100.0438 5.3396 3.7176 77.3158 3.7007 4.9834 80.2202 5.5042 2.1031 28.9778 2.2389 -0.1758 81.9223 -0.4948 5.7336 48.0813 2.9325 2.5190 78.8131 3.3829 5.0209 -1.8020 -5.9137 -34.6800 -3.5595 -4.8941 41.6996 -0.3275 1.9812 6.1921 0.0000 0.0000 -3.9289 -7.4762 8.7326 -3.6671 -1.5490 -6.2011 18.3956 6.0294 1.8482 -11.4556 0.0000 0.0000 0.1856 
4.9748 96.8422 -2.4644 2.4342 3.6073 -2.8905 -0.3440 -6.8222 7.1311 -1.1797 -1.3230 2.7698 -1.2935 -1.2034 2.7858 2.5045 -0.5391 -0.1624 -1.3007 0.9380 -13.8133 0.0000 -0.0000 0.0000 0.0000 -0.0000 0.0000 0.0000 -0.0000 0.0000 -8.7739 -0.7302 0.6951 -59.4915 -9.3238 12.1465 3.9980 -75.7651 -5.8271 -25.3067 8.9292 -116.9519 -72.3346 -13.8023 3.3653 -59.0772 -2.1533 2.5953 9.3338 0.5526 -0.1697 11.8350 -37.6728 8.7584 -4.7253 -0.2532 -17.9028 9.1909 10.7573 -8.1336 -64.0402 -17.3880 0.7469 -68.4924 -3.2570 0.9849 17.6350 0.9457 0.4282 -70.5843 -11.8673 3.0985 -70.9371 -3.8755 0.7586 8.6979 0.6914 0.2867 -64.9588 -8.4171 2.9553 -66.8567 -2.1819 3.3712 11.4696 0.7213 -0.2262 -4.2881 13.5277 7.4392 65.4792 1.5881 15.7604 -169.6514 79.7564 -171.7912 31.0886 -4.1009 -16.5730 75.2157 -2.5063 5.2002 101.2876 3.2039 6.4780 92.7352 3.4544 5.8808 20.0727 30.2083 66.9121 1.4983 -33.0517 -16.8361 -43.3648 -49.6003 38.6483 13.9317 12.6993 -1.4469 47.7815 3.4117 0.5004 100.0439 5.3396 3.7176 77.3158 3.7007 4.9834 80.2202 5.5042 2.1031 28.9778 2.2389 -0.1758 81.9223 -0.4948 5.7336 48.0813 2.9325 2.5190 78.8131 3.3829 5.0209 -0.9661 -5.9948 -36.0408 -2.4647 -5.7137 32.1842 0.1423 1.9956 9.0345 0.0000 -0.0000 -7.2552 -6.8812 8.6299 -1.4412 -1.6711 -6.5003 18.4931 5.7437 1.9565 -14.0256 -0.0000 0.0000 0.3021 
